<?xml version="1.0" encoding="UTF-8"?>
<svg xmlns="http://www.w3.org/2000/svg" viewBox="0 0 800 1100" width="800" height="1100">
  <!-- Style 1: Senior dentist's hurried scrawl.
       Same letterhead, but the handwritten part is barely legible:
       slanted lines, heavy abbreviation, ink blot, faster strokes. -->
  <defs>
    <linearGradient id="paper" x1="0" y1="0" x2="0" y2="1">
      <stop offset="0" stop-color="#fefbf2"/>
      <stop offset="1" stop-color="#f6efe0"/>
    </linearGradient>
    <filter id="grain" x="0" y="0" width="100%" height="100%">
      <feTurbulence type="fractalNoise" baseFrequency="0.9" numOctaves="2" stitchTiles="stitch"/>
      <feColorMatrix values="0 0 0 0 0   0 0 0 0 0   0 0 0 0 0   0 0 0 0.06 0"/>
      <feComposite in2="SourceGraphic" operator="in"/>
    </filter>
    <filter id="smudge" x="-20%" y="-20%" width="140%" height="140%">
      <feGaussianBlur stdDeviation="2.2"/>
    </filter>
  </defs>

  <rect width="800" height="1100" fill="url(#paper)"/>
  <rect width="800" height="1100" fill="#000" filter="url(#grain)" opacity="0.4"/>

  <!-- Coffee ring stain -->
  <g opacity="0.10">
    <ellipse cx="650" cy="380" rx="55" ry="48" fill="none" stroke="#6b3416" stroke-width="4"/>
    <ellipse cx="650" cy="380" rx="40" ry="34" fill="none" stroke="#6b3416" stroke-width="2"/>
  </g>

  <rect x="0" y="0" width="800" height="1100" fill="none" stroke="#d8ccab" stroke-width="1"/>

  <!-- ===== Printed letterhead ===== -->
  <g font-family="Georgia, serif">
    <g transform="translate(60 70)">
      <circle cx="0" cy="0" r="24" fill="#0168B3"/>
      <text x="0" y="9" text-anchor="middle" fill="#fff" font-size="28" font-weight="bold">⚕</text>
    </g>
    <text x="100" y="64" font-size="22" font-weight="bold" fill="#0a2742">MAHAKUR MEDICAL STORE &amp; POLY DENTAL CLINIC</text>
    <text x="100" y="86" font-size="13" fill="#575757">Bhatra Chowk, Cuttack Road, Dhanupali · Sambalpur, Odisha 768005</text>
    <text x="100" y="104" font-size="12" fill="#575757">+91 82602 22828</text>
    <line x1="60" y1="125" x2="740" y2="125" stroke="#0E5087" stroke-width="2"/>
    <text x="60" y="156" font-size="16" font-weight="bold" fill="#272B41">Dr. Manoranjan Mahakur</text>
    <text x="60" y="178" font-size="12" fill="#575757">MDS, MPH, PHDMC · Reg. No. 446/A</text>
    <line x1="60" y1="200" x2="740" y2="200" stroke="#dcd2b6" stroke-width="1"/>
  </g>

  <!-- ===== Printed labels ===== -->
  <g font-family="Georgia, serif" fill="#575757" font-size="12">
    <text x="60" y="234">Patient</text>
    <text x="380" y="234">Age</text>
    <text x="470" y="234">Sex</text>
    <text x="560" y="234">Date</text>
  </g>

  <!-- ===== Handwritten patient details — slanted, hurried ===== -->
  <g font-family="'Brush Script MT', 'Lucida Handwriting', 'Bradley Hand', 'Comic Sans MS', cursive" fill="#1a1a2a">
    <text x="115" y="232" font-size="26" rotate="-3 2 -4 1 -2 3 -1" transform="skewX(-6)">Anita S.</text>
    <text x="405" y="232" font-size="26" rotate="-2 4" transform="skewX(-4)">34</text>
    <text x="495" y="232" font-size="26" rotate="2" transform="skewX(-3)">F</text>
    <text x="585" y="232" font-size="26" rotate="-1 2 -3 4 -2 1 -3 2" transform="skewX(-5)">9/5/26</text>
  </g>
  <g stroke="#cdc4a8" stroke-width="1">
    <line x1="105" y1="240" x2="370" y2="240"/>
    <line x1="400" y1="240" x2="460" y2="240"/>
    <line x1="490" y1="240" x2="550" y2="240"/>
    <line x1="580" y1="240" x2="740" y2="240"/>
  </g>

  <!-- Complaint line — abbreviated -->
  <g font-family="Georgia, serif" fill="#575757" font-size="12">
    <text x="60" y="278">C/O</text>
  </g>
  <g font-family="'Brush Script MT', 'Lucida Handwriting', 'Bradley Hand', cursive" fill="#1a1a2a">
    <text x="105" y="280" font-size="24" rotate="-2 1 -3 2 -1 3 -2 1 -4 2 -1 3 -2 1 -3 2 -1 -3 4 -2 1 -3" transform="skewX(-7)">pain 46 - RCT S2 done</text>
  </g>
  <line x1="100" y1="288" x2="740" y2="288" stroke="#cdc4a8" stroke-width="1"/>

  <!-- Stylized Rx symbol with extra swoosh -->
  <g transform="translate(60 365)">
    <path d="M 0 0 L 0 -50 L 22 -50 C 38 -50, 38 -28, 22 -28 L 10 -28 L 0 0 L 30 -10"
          stroke="#0E5087" stroke-width="3.5" fill="none" stroke-linecap="round" stroke-linejoin="round"/>
    <path d="M 22 -28 L 38 0" stroke="#0E5087" stroke-width="3.5" fill="none" stroke-linecap="round"/>
  </g>

  <!-- ===== Heavily abbreviated, slanted medications =====
       Notice: "T.Cef 500 BD x 5/7"-style shorthand, not the polite "Cefuroxime 500mg". -->
  <g font-family="'Brush Script MT', 'Lucida Handwriting', 'Bradley Hand', 'Comic Sans MS', cursive" fill="#0d1f3a">

    <!-- Line 1: T. Cef 500 BD x 5/7 -->
    <g transform="translate(0 0) rotate(-1.2 0 420)">
      <text x="80" y="420" font-size="30" rotate="-3 2 -1 3 -2" transform="skewX(-9)">1)</text>
      <text x="125" y="420" font-size="32" rotate="-2 4 -1 2 -3 1 -4 2 -1 3 -2 1 -3 2 -1 3 -4 2 -1 3 -2" transform="skewX(-10)">T. Cefoxim 500</text>
      <text x="510" y="420" font-size="28" rotate="-1 3 -2 1 -4 2 -1 3" transform="skewX(-8)">BD × 5/7</text>
      <line x1="125" y1="427" x2="475" y2="424" stroke="#2a2a44" stroke-width="0.8"/>
    </g>

    <!-- Line 2: T. Acet-Para BD x 3/7 -->
    <g transform="translate(0 0) rotate(-0.6 0 480)">
      <text x="80" y="480" font-size="30" rotate="-2 3 -1" transform="skewX(-8)">2)</text>
      <text x="125" y="480" font-size="32" rotate="-3 1 -2 4 -1 2 -3 1 -4 2 -1 3 -2 1 -3 2 -1 -3 4 -2" transform="skewX(-12)">T. Acefac-Para</text>
      <text x="510" y="480" font-size="28" rotate="2 -3 1 -2 4 -1 2 -3" transform="skewX(-9)">BD × 3/7</text>
      <line x1="125" y1="487" x2="475" y2="484" stroke="#2a2a44" stroke-width="0.8"/>
    </g>

    <!-- Line 3: MW Chlor 0.2% BD x 1/52 — "1/52" = 1 week in shorthand -->
    <g transform="translate(0 0) rotate(0.8 0 540)">
      <text x="80" y="540" font-size="30" rotate="-1 2 -3" transform="skewX(-7)">3)</text>
      <text x="125" y="540" font-size="32" rotate="-2 4 -1 3 -2 1 -4 2 -1 3 -2 1 -3 2 -1 -3 4 -2" transform="skewX(-11)">MW Chlor 0.2%</text>
      <text x="510" y="540" font-size="28" rotate="-3 2 -1 4 -2 1 -3 2 -1 3" transform="skewX(-8)">BD × 1/52</text>
      <line x1="125" y1="547" x2="475" y2="544" stroke="#2a2a44" stroke-width="0.8"/>
    </g>

    <!-- A correction strike-through over a "wrong" earlier note + scribble -->
    <g opacity="0.55" transform="translate(0 0) rotate(-2 0 600)">
      <text x="125" y="600" font-size="28" fill="#3a3a55" transform="skewX(-10)">T. Ibupro</text>
      <line x1="120" y1="592" x2="270" y2="595" stroke="#1a1a2a" stroke-width="3" stroke-linecap="round"/>
      <line x1="118" y1="599" x2="265" y2="601" stroke="#1a1a2a" stroke-width="2" stroke-linecap="round"/>
    </g>

    <!-- Advice — scribbled bottom -->
    <g transform="translate(0 0) rotate(-1.5 0 680)">
      <text x="60" y="680" font-size="26" rotate="-2 1 -3 2 -1 4 -2 1 -3 2 -1 3 -4 2 -1 -3 2 -1 4 -2 1 -3" transform="skewX(-8)">Soft food 24h. F/U 2/52</text>
    </g>
  </g>

  <!-- Ink smudge near the middle - shows the doctor was in a hurry -->
  <g opacity="0.55" filter="url(#smudge)">
    <ellipse cx="475" cy="425" rx="14" ry="5" fill="#1a1a2a"/>
    <ellipse cx="245" cy="555" rx="9" ry="3" fill="#1a1a2a" transform="rotate(-15 245 555)"/>
  </g>

  <!-- Signature — illegible swoosh -->
  <g transform="translate(540 870)">
    <path d="M 0 30
             Q 8 8, 28 18
             T 60 28
             T 95 16
             T 130 32
             T 170 22
             M 50 38 Q 80 50, 110 38 T 165 40
             M 30 45 L 50 38" stroke="#1a1a2a" stroke-width="2.5" fill="none" stroke-linecap="round"/>
    <line x1="0" y1="65" x2="180" y2="65" stroke="#575757" stroke-width="1"/>
    <text x="90" y="83" text-anchor="middle" font-family="Georgia, serif" font-size="11" fill="#575757">Dr. Manoranjan Mahakur</text>
  </g>

  <!-- Stamp -->
  <g transform="translate(120 880) rotate(-8)" opacity="0.55">
    <rect x="0" y="0" width="160" height="60" fill="none" stroke="#3a4ea8" stroke-width="2" rx="3"/>
    <text x="80" y="22" text-anchor="middle" font-family="Georgia, serif" font-size="10" fill="#3a4ea8" font-weight="bold">MAHAKUR POLY DENTAL</text>
    <text x="80" y="37" text-anchor="middle" font-family="Georgia, serif" font-size="9" fill="#3a4ea8">Sambalpur · 09/05/2026</text>
    <text x="80" y="51" text-anchor="middle" font-family="Georgia, serif" font-size="9" fill="#3a4ea8">Reg. 446/A</text>
  </g>

  <line x1="60" y1="1010" x2="740" y2="1010" stroke="#0E5087" stroke-width="1.5"/>
  <g font-family="Georgia, serif" font-size="10" fill="#9aa9b8">
    <text x="400" y="1035" text-anchor="middle">For queries: WhatsApp +91 82602 22828</text>
  </g>
</svg>
