<?xml version="1.0" encoding="UTF-8"?>
<svg xmlns="http://www.w3.org/2000/svg" viewBox="0 0 800 1100" width="800" height="1100">
  <!-- Style 3: Multiple corrections.
       Doctor wrote, scratched out, wrote again. Dose changed. Pen colour
       switched mid-page. Arrow notes in the margin. This is the "real world"
       chart-recovery photo. -->
  <defs>
    <linearGradient id="paper" x1="0" y1="0" x2="0" y2="1">
      <stop offset="0" stop-color="#fefcf6"/>
      <stop offset="1" stop-color="#f7f1e3"/>
    </linearGradient>
    <filter id="grain" x="0" y="0" width="100%" height="100%">
      <feTurbulence type="fractalNoise" baseFrequency="0.85" numOctaves="2" stitchTiles="stitch"/>
      <feColorMatrix values="0 0 0 0 0   0 0 0 0 0   0 0 0 0 0   0 0 0 0.05 0"/>
      <feComposite in2="SourceGraphic" operator="in"/>
    </filter>
    <filter id="smudge" x="-20%" y="-20%" width="140%" height="140%">
      <feGaussianBlur stdDeviation="2"/>
    </filter>
  </defs>

  <rect width="800" height="1100" fill="url(#paper)"/>
  <rect width="800" height="1100" fill="#000" filter="url(#grain)" opacity="0.4"/>
  <rect x="0" y="0" width="800" height="1100" fill="none" stroke="#d8ccab" stroke-width="1"/>

  <!-- ===== Letterhead ===== -->
  <g font-family="Georgia, serif">
    <g transform="translate(60 70)">
      <circle cx="0" cy="0" r="24" fill="#0168B3"/>
      <text x="0" y="9" text-anchor="middle" fill="#fff" font-size="28" font-weight="bold">⚕</text>
    </g>
    <text x="100" y="64" font-size="22" font-weight="bold" fill="#0a2742">MAHAKUR MEDICAL STORE &amp; POLY DENTAL CLINIC</text>
    <text x="100" y="86" font-size="13" fill="#575757">Bhatra Chowk, Cuttack Road, Dhanupali · Sambalpur, Odisha 768005</text>
    <text x="100" y="104" font-size="12" fill="#575757">+91 82602 22828</text>
    <line x1="60" y1="125" x2="740" y2="125" stroke="#0E5087" stroke-width="2"/>
    <text x="60" y="156" font-size="16" font-weight="bold" fill="#272B41">Dr. Manoranjan Mahakur</text>
    <text x="60" y="178" font-size="12" fill="#575757">MDS, MPH, PHDMC · Reg. No. 446/A</text>
    <line x1="60" y1="200" x2="740" y2="200" stroke="#dcd2b6" stroke-width="1"/>
  </g>

  <!-- Patient line — slightly smudged -->
  <g font-family="Georgia, serif" fill="#575757" font-size="12">
    <text x="60" y="234">Patient</text>
    <text x="380" y="234">Age</text>
    <text x="470" y="234">Sex</text>
    <text x="560" y="234">Date</text>
  </g>
  <g font-family="'Bradley Hand', 'Lucida Handwriting', 'Comic Sans MS', cursive" fill="#1a1a2a">
    <text x="115" y="232" font-size="24" rotate="-1 2 -3 1 -2 3 -1" transform="skewX(-4)">Anita Sahu</text>
    <text x="405" y="232" font-size="24" rotate="-2 3" transform="skewX(-3)">34</text>
    <text x="495" y="232" font-size="24" rotate="2" transform="skewX(-2)">F</text>
    <text x="585" y="232" font-size="24" rotate="-1 2 -3 1 -2" transform="skewX(-3)">09/05/26</text>
  </g>
  <g stroke="#cdc4a8" stroke-width="1">
    <line x1="105" y1="240" x2="370" y2="240"/>
    <line x1="400" y1="240" x2="460" y2="240"/>
    <line x1="490" y1="240" x2="550" y2="240"/>
    <line x1="580" y1="240" x2="740" y2="240"/>
  </g>

  <!-- C/O — blue-ish pen -->
  <g font-family="Georgia, serif" fill="#575757" font-size="12">
    <text x="60" y="278">C/O</text>
  </g>
  <g font-family="'Bradley Hand', 'Lucida Handwriting', cursive" fill="#16345e">
    <text x="105" y="278" font-size="22" rotate="-1 2 -3 1 -2 3 -1 4 -2 1 -3" transform="skewX(-5)">Tooth pain — 46 — post RCT S2</text>
  </g>
  <line x1="100" y1="286" x2="740" y2="286" stroke="#cdc4a8" stroke-width="1"/>

  <!-- Rx -->
  <text x="60" y="360" font-family="Georgia, serif" font-size="56" font-weight="bold" font-style="italic" fill="#0E5087">℞</text>

  <!-- ===== Medications with corrections ===== -->
  <g font-family="'Bradley Hand', 'Lucida Handwriting', 'Comic Sans MS', cursive">

    <!-- 1: Amoxicillin written, then STRUCK OUT, replaced by Cefuroxime
         (because patient has penicillin allergy per H/O — common real-world correction). -->
    <g transform="translate(0 0) rotate(-0.5 0 420)">
      <text x="80" y="420" font-size="26" fill="#0d1f3a" transform="skewX(-6)">1)</text>

      <!-- Original (struck out) — blue-ish ink -->
      <g opacity="0.7">
        <text x="120" y="420" font-size="26" fill="#16345e" rotate="-2 1 -3 2 -1 4 -2 1 -3 2 -1 3" transform="skewX(-7)">T. Amoxicillin 500</text>
        <line x1="118" y1="412" x2="395" y2="416" stroke="#16345e" stroke-width="2.2" stroke-linecap="round"/>
        <line x1="115" y1="421" x2="392" y2="424" stroke="#16345e" stroke-width="2" stroke-linecap="round"/>
        <text x="410" y="420" font-size="22" fill="#16345e" transform="skewX(-6)">1-0-1 × 5d</text>
        <line x1="408" y1="412" x2="540" y2="414" stroke="#16345e" stroke-width="2" stroke-linecap="round"/>
      </g>

      <!-- Replacement — different ink (darker, black-ish), written above -->
      <g transform="translate(0 -30)">
        <text x="120" y="420" font-size="28" fill="#0a0a0a" rotate="-3 2 -1 4 -2 1 -3 2 -1 3 -2 1 -3" transform="skewX(-8)" font-weight="bold">T. Cefoxim 500</text>
        <text x="410" y="420" font-size="24" fill="#0a0a0a" transform="skewX(-7)">BD × 5d</text>
      </g>

      <!-- Tiny note: "PCN allergy ⚠" arrow pointing to the strike -->
      <g transform="translate(560 380)">
        <text x="0" y="0" font-size="14" fill="#b8253a" font-style="italic" font-weight="bold">⚠ PCN allergy</text>
        <path d="M -10 5 Q -50 18, -100 18 L -90 12 M -100 18 L -88 26"
              stroke="#b8253a" stroke-width="1.4" fill="none" stroke-linecap="round"/>
      </g>
    </g>

    <!-- 2: Aceclofenac + Para — duration corrected from 3d → 5d -->
    <g transform="translate(0 0) rotate(-0.3 0 490)">
      <text x="80" y="490" font-size="26" fill="#0d1f3a" transform="skewX(-6)">2)</text>
      <text x="120" y="490" font-size="26" fill="#0d1f3a" rotate="-2 3 -1 4 -2 1 -3 2 -1 3 -2 1 -4" transform="skewX(-7)">T. Acefac-Para</text>
      <text x="410" y="490" font-size="24" fill="#0d1f3a" transform="skewX(-6)">BD × </text>

      <!-- "3d" struck out, "5d" above -->
      <g opacity="0.7">
        <text x="475" y="490" font-size="24" fill="#0d1f3a">3d</text>
        <line x1="472" y1="482" x2="510" y2="484" stroke="#0d1f3a" stroke-width="2" stroke-linecap="round"/>
      </g>
      <text x="478" y="462" font-size="22" fill="#0a0a0a" font-weight="bold">5d</text>
      <path d="M 488 466 Q 490 472, 492 478" stroke="#0a0a0a" stroke-width="1.5" fill="none"/>
    </g>

    <!-- 3: Mouthwash — clean -->
    <g transform="translate(0 0) rotate(0.4 0 555)">
      <text x="80" y="555" font-size="26" fill="#0d1f3a" transform="skewX(-6)">3)</text>
      <text x="120" y="555" font-size="26" fill="#0d1f3a" rotate="-1 2 -3 4 -2 1 -3 2 -1 -3" transform="skewX(-7)">Chlorhexidine MW</text>
      <text x="430" y="555" font-size="24" fill="#0d1f3a" transform="skewX(-6)">10ml BD × 7d</text>
    </g>

    <!-- Margin scribble: "give samples!" — shows a hurried add-on -->
    <g transform="translate(620 555) rotate(-3)">
      <text x="0" y="0" font-size="16" fill="#b8253a" font-style="italic">give samples!</text>
      <path d="M 60 4 L 90 -4" stroke="#b8253a" stroke-width="1" fill="none"/>
    </g>

    <!-- 4: Added later — bottom of the page, smaller -->
    <g transform="translate(0 0) rotate(0.8 0 625)">
      <text x="80" y="625" font-size="22" fill="#16345e" transform="skewX(-6)">4)</text>
      <text x="115" y="625" font-size="24" fill="#16345e" rotate="-2 1 -3 2 -1 4 -2 1 -3 2 -1 3 -2" transform="skewX(-8)">Cap. B-complex</text>
      <text x="430" y="625" font-size="22" fill="#16345e" transform="skewX(-6)">0-1-0 × 10d</text>
    </g>

    <!-- Advice with insertion mark (caret pointing up) -->
    <g transform="translate(60 700)">
      <text x="0" y="0" font-size="22" fill="#0d1f3a" rotate="-1 2 -3 1 -2 3 -1 4 -2 1 -3 2 -1 4 -2 1 -3 2 -1 -3 4 -2 1 -3" transform="skewX(-6)">Soft food, no chewing on right side. Return in 2 wks</text>

      <!-- Insertion mark: "+ ice pack 24h" inserted above -->
      <g transform="translate(240 -28)">
        <text x="0" y="0" font-size="18" fill="#b8253a" font-weight="bold" transform="skewX(-5)">+ ice pack ×24h</text>
        <!-- Caret -->
        <path d="M 50 8 L 56 18 L 62 8" stroke="#b8253a" stroke-width="1.5" fill="none" stroke-linecap="round"/>
      </g>
    </g>
  </g>

  <!-- Ink blot near the corrections -->
  <g opacity="0.55" filter="url(#smudge)">
    <ellipse cx="395" cy="395" rx="9" ry="3" fill="#16345e"/>
  </g>

  <!-- Signature -->
  <g transform="translate(530 870)">
    <path d="M 0 30
             Q 10 0, 30 18
             T 60 28
             T 95 16
             T 130 30
             T 170 22
             M 40 38 Q 80 52, 120 38 T 165 42" stroke="#0a0a0a" stroke-width="2.5" fill="none" stroke-linecap="round"/>
    <line x1="0" y1="65" x2="180" y2="65" stroke="#575757" stroke-width="1"/>
    <text x="90" y="82" text-anchor="middle" font-family="Georgia, serif" font-size="11" fill="#575757">Dr. Manoranjan Mahakur</text>
  </g>

  <!-- Stamp -->
  <g transform="translate(100 880) rotate(-4)" opacity="0.55">
    <rect x="0" y="0" width="160" height="60" fill="none" stroke="#3a4ea8" stroke-width="2" rx="3"/>
    <text x="80" y="22" text-anchor="middle" font-family="Georgia, serif" font-size="10" fill="#3a4ea8" font-weight="bold">MAHAKUR POLY DENTAL</text>
    <text x="80" y="37" text-anchor="middle" font-family="Georgia, serif" font-size="9" fill="#3a4ea8">Sambalpur · 09/05/26</text>
    <text x="80" y="51" text-anchor="middle" font-family="Georgia, serif" font-size="9" fill="#3a4ea8">Reg. 446/A</text>
  </g>

  <line x1="60" y1="1010" x2="740" y2="1010" stroke="#0E5087" stroke-width="1.5"/>
  <g font-family="Georgia, serif" font-size="10" fill="#9aa9b8">
    <text x="400" y="1035" text-anchor="middle">All corrections countersigned by the prescriber</text>
  </g>
</svg>
